<mxfile host="app.diagrams.net" modified="2020-10-22T10:49:25.429Z" agent="5.0 (Windows NT 10.0; Win64; x64) AppleWebKit/537.36 (KHTML, like Gecko) Chrome/86.0.4240.111 Safari/537.36" etag="ZsN5Hqz_Zl9iX2LUuFMb" version="13.8.1" type="github">
  <diagram id="C5RBs43oDa-KdzZeNtuy" name="Page-1">
    <mxGraphModel dx="2249" dy="794" grid="1" gridSize="10" guides="1" tooltips="1" connect="1" arrows="1" fold="1" page="1" pageScale="1" pageWidth="827" pageHeight="1169" math="0" shadow="0">
      <root>
        <mxCell id="WIyWlLk6GJQsqaUBKTNV-0" />
        <mxCell id="WIyWlLk6GJQsqaUBKTNV-1" parent="WIyWlLk6GJQsqaUBKTNV-0" />
        <mxCell id="D8FNYwvXqDfQ5iBi4eCD-9" value="No" style="edgeStyle=orthogonalEdgeStyle;rounded=0;orthogonalLoop=1;jettySize=auto;html=1;entryX=0;entryY=0.5;entryDx=0;entryDy=0;" parent="WIyWlLk6GJQsqaUBKTNV-1" source="dr_eGFU53ikKN1Gfr4Bc-11" target="D8FNYwvXqDfQ5iBi4eCD-6" edge="1">
          <mxGeometry relative="1" as="geometry">
            <Array as="points">
              <mxPoint x="245" y="315" />
            </Array>
          </mxGeometry>
        </mxCell>
        <mxCell id="D8FNYwvXqDfQ5iBi4eCD-11" value="Yes" style="edgeStyle=orthogonalEdgeStyle;rounded=0;orthogonalLoop=1;jettySize=auto;html=1;entryX=0;entryY=0.5;entryDx=0;entryDy=0;" parent="WIyWlLk6GJQsqaUBKTNV-1" source="dr_eGFU53ikKN1Gfr4Bc-11" target="D8FNYwvXqDfQ5iBi4eCD-10" edge="1">
          <mxGeometry x="0.5453" y="13" relative="1" as="geometry">
            <Array as="points">
              <mxPoint x="245" y="443" />
              <mxPoint x="260" y="443" />
            </Array>
            <mxPoint as="offset" />
          </mxGeometry>
        </mxCell>
        <mxCell id="dr_eGFU53ikKN1Gfr4Bc-11" value="" style="strokeWidth=2;html=1;shape=mxgraph.flowchart.decision;whiteSpace=wrap;" parent="WIyWlLk6GJQsqaUBKTNV-1" vertex="1">
          <mxGeometry x="220" y="340" width="50" height="50" as="geometry" />
        </mxCell>
        <mxCell id="ru7FEsAcvSoQa1bK1Z1L-4" style="edgeStyle=orthogonalEdgeStyle;rounded=0;orthogonalLoop=1;jettySize=auto;html=1;entryX=0;entryY=0.5;entryDx=0;entryDy=0;" edge="1" parent="WIyWlLk6GJQsqaUBKTNV-1" source="dr_eGFU53ikKN1Gfr4Bc-22" target="ru7FEsAcvSoQa1bK1Z1L-7">
          <mxGeometry relative="1" as="geometry">
            <mxPoint x="630" y="493" as="targetPoint" />
          </mxGeometry>
        </mxCell>
        <mxCell id="dr_eGFU53ikKN1Gfr4Bc-22" value="Process order" style="rounded=1;whiteSpace=wrap;html=1;absoluteArcSize=1;arcSize=14;strokeWidth=2;" parent="WIyWlLk6GJQsqaUBKTNV-1" vertex="1">
          <mxGeometry x="480" y="467.5" width="100" height="50" as="geometry" />
        </mxCell>
        <mxCell id="D8FNYwvXqDfQ5iBi4eCD-2" style="edgeStyle=orthogonalEdgeStyle;rounded=0;orthogonalLoop=1;jettySize=auto;html=1;entryX=0;entryY=0.5;entryDx=0;entryDy=0;entryPerimeter=0;" parent="WIyWlLk6GJQsqaUBKTNV-1" source="dr_eGFU53ikKN1Gfr4Bc-26" target="dr_eGFU53ikKN1Gfr4Bc-11" edge="1">
          <mxGeometry relative="1" as="geometry" />
        </mxCell>
        <mxCell id="dr_eGFU53ikKN1Gfr4Bc-26" value="If customer in database?" style="rounded=1;whiteSpace=wrap;html=1;absoluteArcSize=1;arcSize=14;strokeWidth=2;" parent="WIyWlLk6GJQsqaUBKTNV-1" vertex="1">
          <mxGeometry x="80" y="342.5" width="100" height="45" as="geometry" />
        </mxCell>
        <mxCell id="D8FNYwvXqDfQ5iBi4eCD-25" value="Questionable" style="edgeStyle=orthogonalEdgeStyle;rounded=0;orthogonalLoop=1;jettySize=auto;html=1;entryX=0;entryY=0.5;entryDx=0;entryDy=0;" parent="WIyWlLk6GJQsqaUBKTNV-1" source="dr_eGFU53ikKN1Gfr4Bc-32" target="dr_eGFU53ikKN1Gfr4Bc-38" edge="1">
          <mxGeometry x="-0.5484" y="15" relative="1" as="geometry">
            <mxPoint as="offset" />
          </mxGeometry>
        </mxCell>
        <mxCell id="D8FNYwvXqDfQ5iBi4eCD-26" value="Positive" style="edgeStyle=orthogonalEdgeStyle;rounded=0;orthogonalLoop=1;jettySize=auto;html=1;entryX=0;entryY=0.5;entryDx=0;entryDy=0;" parent="WIyWlLk6GJQsqaUBKTNV-1" source="dr_eGFU53ikKN1Gfr4Bc-32" target="dr_eGFU53ikKN1Gfr4Bc-22" edge="1">
          <mxGeometry x="-0.1571" y="-18" relative="1" as="geometry">
            <Array as="points">
              <mxPoint x="445" y="493" />
              <mxPoint x="460" y="493" />
            </Array>
            <mxPoint x="-5" y="-1" as="offset" />
          </mxGeometry>
        </mxCell>
        <mxCell id="dr_eGFU53ikKN1Gfr4Bc-32" value="" style="strokeWidth=2;html=1;shape=mxgraph.flowchart.decision;whiteSpace=wrap;" parent="WIyWlLk6GJQsqaUBKTNV-1" vertex="1">
          <mxGeometry x="420" y="417.5" width="50" height="50" as="geometry" />
        </mxCell>
        <mxCell id="D8FNYwvXqDfQ5iBi4eCD-28" style="edgeStyle=orthogonalEdgeStyle;rounded=0;orthogonalLoop=1;jettySize=auto;html=1;entryX=0;entryY=0.5;entryDx=0;entryDy=0;entryPerimeter=0;" parent="WIyWlLk6GJQsqaUBKTNV-1" source="dr_eGFU53ikKN1Gfr4Bc-38" target="dr_eGFU53ikKN1Gfr4Bc-44" edge="1">
          <mxGeometry relative="1" as="geometry" />
        </mxCell>
        <mxCell id="D8FNYwvXqDfQ5iBi4eCD-22" value="No" style="edgeStyle=orthogonalEdgeStyle;rounded=0;orthogonalLoop=1;jettySize=auto;html=1;entryX=0;entryY=0.5;entryDx=0;entryDy=0;" parent="WIyWlLk6GJQsqaUBKTNV-1" source="dr_eGFU53ikKN1Gfr4Bc-44" target="ru7FEsAcvSoQa1bK1Z1L-11" edge="1">
          <mxGeometry x="-0.1111" y="15" relative="1" as="geometry">
            <mxPoint as="offset" />
            <mxPoint x="760" y="365" as="targetPoint" />
          </mxGeometry>
        </mxCell>
        <mxCell id="ru7FEsAcvSoQa1bK1Z1L-2" value="Yes" style="edgeStyle=orthogonalEdgeStyle;rounded=0;orthogonalLoop=1;jettySize=auto;html=1;entryX=0.5;entryY=0;entryDx=0;entryDy=0;" edge="1" parent="WIyWlLk6GJQsqaUBKTNV-1" source="dr_eGFU53ikKN1Gfr4Bc-44" target="ru7FEsAcvSoQa1bK1Z1L-7">
          <mxGeometry relative="1" as="geometry">
            <mxPoint x="685" y="467.5" as="targetPoint" />
          </mxGeometry>
        </mxCell>
        <mxCell id="dr_eGFU53ikKN1Gfr4Bc-44" value="" style="strokeWidth=2;html=1;shape=mxgraph.flowchart.decision;whiteSpace=wrap;" parent="WIyWlLk6GJQsqaUBKTNV-1" vertex="1">
          <mxGeometry x="620" y="340" width="50" height="50" as="geometry" />
        </mxCell>
        <mxCell id="D8FNYwvXqDfQ5iBi4eCD-21" style="edgeStyle=orthogonalEdgeStyle;rounded=0;orthogonalLoop=1;jettySize=auto;html=1;entryX=0;entryY=0.5;entryDx=0;entryDy=0;exitX=1;exitY=0.5;exitDx=0;exitDy=0;" parent="WIyWlLk6GJQsqaUBKTNV-1" source="ru7FEsAcvSoQa1bK1Z1L-11" target="D8FNYwvXqDfQ5iBi4eCD-19" edge="1">
          <mxGeometry relative="1" as="geometry">
            <mxPoint x="860" y="365" as="sourcePoint" />
          </mxGeometry>
        </mxCell>
        <mxCell id="D8FNYwvXqDfQ5iBi4eCD-20" style="edgeStyle=orthogonalEdgeStyle;rounded=0;orthogonalLoop=1;jettySize=auto;html=1;entryX=0.5;entryY=1;entryDx=0;entryDy=0;" parent="WIyWlLk6GJQsqaUBKTNV-1" source="dr_eGFU53ikKN1Gfr4Bc-54" target="D8FNYwvXqDfQ5iBi4eCD-19" edge="1">
          <mxGeometry relative="1" as="geometry" />
        </mxCell>
        <mxCell id="dr_eGFU53ikKN1Gfr4Bc-54" value="Produce order requirements&amp;nbsp;list" style="rounded=1;whiteSpace=wrap;html=1;absoluteArcSize=1;arcSize=14;strokeWidth=2;" parent="WIyWlLk6GJQsqaUBKTNV-1" vertex="1">
          <mxGeometry x="800" y="467.5" width="100" height="50" as="geometry" />
        </mxCell>
        <mxCell id="D8FNYwvXqDfQ5iBi4eCD-1" style="edgeStyle=orthogonalEdgeStyle;rounded=0;orthogonalLoop=1;jettySize=auto;html=1;entryX=0;entryY=0.5;entryDx=0;entryDy=0;" parent="WIyWlLk6GJQsqaUBKTNV-1" source="D8FNYwvXqDfQ5iBi4eCD-0" target="dr_eGFU53ikKN1Gfr4Bc-26" edge="1">
          <mxGeometry relative="1" as="geometry" />
        </mxCell>
        <mxCell id="D8FNYwvXqDfQ5iBi4eCD-0" value="" style="shape=mxgraph.bpmn.shape;html=1;verticalLabelPosition=bottom;labelBackgroundColor=#ffffff;verticalAlign=top;align=center;perimeter=ellipsePerimeter;outlineConnect=0;outline=standard;symbol=general;" parent="WIyWlLk6GJQsqaUBKTNV-1" vertex="1">
          <mxGeometry x="10" y="345" width="40" height="40" as="geometry" />
        </mxCell>
        <mxCell id="D8FNYwvXqDfQ5iBi4eCD-29" style="edgeStyle=orthogonalEdgeStyle;rounded=0;orthogonalLoop=1;jettySize=auto;html=1;entryX=0.6;entryY=0.05;entryDx=0;entryDy=0;entryPerimeter=0;" parent="WIyWlLk6GJQsqaUBKTNV-1" source="D8FNYwvXqDfQ5iBi4eCD-6" target="D8FNYwvXqDfQ5iBi4eCD-10" edge="1">
          <mxGeometry relative="1" as="geometry" />
        </mxCell>
        <mxCell id="D8FNYwvXqDfQ5iBi4eCD-6" value="enter on to the database" style="shape=ext;rounded=1;html=1;whiteSpace=wrap;" parent="WIyWlLk6GJQsqaUBKTNV-1" vertex="1">
          <mxGeometry x="290" y="290" width="100" height="50" as="geometry" />
        </mxCell>
        <mxCell id="D8FNYwvXqDfQ5iBi4eCD-24" style="edgeStyle=orthogonalEdgeStyle;rounded=0;orthogonalLoop=1;jettySize=auto;html=1;entryX=0;entryY=0.5;entryDx=0;entryDy=0;entryPerimeter=0;" parent="WIyWlLk6GJQsqaUBKTNV-1" source="D8FNYwvXqDfQ5iBi4eCD-10" target="dr_eGFU53ikKN1Gfr4Bc-32" edge="1">
          <mxGeometry relative="1" as="geometry" />
        </mxCell>
        <mxCell id="D8FNYwvXqDfQ5iBi4eCD-10" value="Creadit worthiness" style="shape=ext;rounded=1;html=1;whiteSpace=wrap;" parent="WIyWlLk6GJQsqaUBKTNV-1" vertex="1">
          <mxGeometry x="280" y="417.5" width="100" height="50" as="geometry" />
        </mxCell>
        <mxCell id="D8FNYwvXqDfQ5iBi4eCD-19" value="" style="shape=mxgraph.bpmn.shape;html=1;verticalLabelPosition=bottom;labelBackgroundColor=#ffffff;verticalAlign=top;align=center;perimeter=ellipsePerimeter;outlineConnect=0;outline=end;symbol=general;" parent="WIyWlLk6GJQsqaUBKTNV-1" vertex="1">
          <mxGeometry x="980" y="345" width="40" height="40" as="geometry" />
        </mxCell>
        <mxCell id="D8FNYwvXqDfQ5iBi4eCD-31" value="Company" style="swimlane;html=1;horizontal=0;startSize=20;" parent="WIyWlLk6GJQsqaUBKTNV-1" vertex="1">
          <mxGeometry x="-30" y="210" width="1100" height="360" as="geometry" />
        </mxCell>
        <mxCell id="dr_eGFU53ikKN1Gfr4Bc-38" value="If order is to proceed" style="rounded=1;whiteSpace=wrap;html=1;absoluteArcSize=1;arcSize=14;strokeWidth=2;" parent="D8FNYwvXqDfQ5iBi4eCD-31" vertex="1">
          <mxGeometry x="500" y="130" width="100" height="50" as="geometry" />
        </mxCell>
        <mxCell id="ru7FEsAcvSoQa1bK1Z1L-7" value="Confirmation sent" style="shape=mxgraph.bpmn.shape;html=1;verticalLabelPosition=bottom;labelBackgroundColor=#ffffff;verticalAlign=top;align=center;perimeter=ellipsePerimeter;outlineConnect=0;outline=throwing;symbol=message;" vertex="1" parent="D8FNYwvXqDfQ5iBi4eCD-31">
          <mxGeometry x="690" y="257.5" width="50" height="50" as="geometry" />
        </mxCell>
        <mxCell id="ru7FEsAcvSoQa1bK1Z1L-11" value="&lt;span style=&quot;background-color: rgb(248 , 249 , 250)&quot;&gt;Send message that order cannot be fulfilled&lt;/span&gt;" style="shape=mxgraph.bpmn.shape;html=1;verticalLabelPosition=bottom;labelBackgroundColor=#ffffff;verticalAlign=top;align=center;perimeter=ellipsePerimeter;outlineConnect=0;outline=throwing;symbol=message;" vertex="1" parent="D8FNYwvXqDfQ5iBi4eCD-31">
          <mxGeometry x="830" y="130" width="50" height="50" as="geometry" />
        </mxCell>
        <mxCell id="ru7FEsAcvSoQa1bK1Z1L-0" value="Customer" style="swimlane;html=1;horizontal=0;startSize=20;" vertex="1" parent="WIyWlLk6GJQsqaUBKTNV-1">
          <mxGeometry x="-30" y="620" width="1100" height="240" as="geometry" />
        </mxCell>
        <mxCell id="ru7FEsAcvSoQa1bK1Z1L-15" style="edgeStyle=orthogonalEdgeStyle;rounded=0;orthogonalLoop=1;jettySize=auto;html=1;entryX=0;entryY=0.5;entryDx=0;entryDy=0;" edge="1" parent="ru7FEsAcvSoQa1bK1Z1L-0" source="ru7FEsAcvSoQa1bK1Z1L-9" target="ru7FEsAcvSoQa1bK1Z1L-13">
          <mxGeometry relative="1" as="geometry" />
        </mxCell>
        <mxCell id="ru7FEsAcvSoQa1bK1Z1L-9" value="Confirmation received" style="shape=mxgraph.bpmn.shape;html=1;verticalLabelPosition=bottom;labelBackgroundColor=#ffffff;verticalAlign=top;align=center;perimeter=ellipsePerimeter;outlineConnect=0;outline=standard;symbol=message;" vertex="1" parent="ru7FEsAcvSoQa1bK1Z1L-0">
          <mxGeometry x="690" y="70" width="50" height="50" as="geometry" />
        </mxCell>
        <mxCell id="ru7FEsAcvSoQa1bK1Z1L-18" style="edgeStyle=orthogonalEdgeStyle;rounded=0;orthogonalLoop=1;jettySize=auto;html=1;entryX=0;entryY=0.5;entryDx=0;entryDy=0;" edge="1" parent="ru7FEsAcvSoQa1bK1Z1L-0" source="ru7FEsAcvSoQa1bK1Z1L-13" target="ru7FEsAcvSoQa1bK1Z1L-17">
          <mxGeometry relative="1" as="geometry" />
        </mxCell>
        <mxCell id="ru7FEsAcvSoQa1bK1Z1L-13" value="Message received" style="shape=mxgraph.bpmn.shape;html=1;verticalLabelPosition=bottom;labelBackgroundColor=#ffffff;verticalAlign=top;align=center;perimeter=ellipsePerimeter;outlineConnect=0;outline=standard;symbol=message;" vertex="1" parent="ru7FEsAcvSoQa1bK1Z1L-0">
          <mxGeometry x="840" y="70" width="50" height="50" as="geometry" />
        </mxCell>
        <mxCell id="ru7FEsAcvSoQa1bK1Z1L-17" value="" style="shape=mxgraph.bpmn.shape;html=1;verticalLabelPosition=bottom;labelBackgroundColor=#ffffff;verticalAlign=top;align=center;perimeter=ellipsePerimeter;outlineConnect=0;outline=end;symbol=general;" vertex="1" parent="ru7FEsAcvSoQa1bK1Z1L-0">
          <mxGeometry x="1000" y="75" width="40" height="40" as="geometry" />
        </mxCell>
        <mxCell id="ru7FEsAcvSoQa1bK1Z1L-5" style="edgeStyle=orthogonalEdgeStyle;rounded=0;orthogonalLoop=1;jettySize=auto;html=1;" edge="1" parent="WIyWlLk6GJQsqaUBKTNV-1" source="ru7FEsAcvSoQa1bK1Z1L-7">
          <mxGeometry relative="1" as="geometry">
            <mxPoint x="800" y="492.5" as="targetPoint" />
            <mxPoint x="710" y="492.5" as="sourcePoint" />
          </mxGeometry>
        </mxCell>
        <mxCell id="ru7FEsAcvSoQa1bK1Z1L-10" value="" style="startArrow=oval;startFill=0;startSize=7;endArrow=block;endFill=0;endSize=10;dashed=1;html=1;entryX=0.5;entryY=0;entryDx=0;entryDy=0;" edge="1" parent="WIyWlLk6GJQsqaUBKTNV-1" source="ru7FEsAcvSoQa1bK1Z1L-7" target="ru7FEsAcvSoQa1bK1Z1L-9">
          <mxGeometry width="100" relative="1" as="geometry">
            <mxPoint x="685" y="510" as="sourcePoint" />
            <mxPoint x="790" y="517.5" as="targetPoint" />
          </mxGeometry>
        </mxCell>
        <mxCell id="ru7FEsAcvSoQa1bK1Z1L-14" value="" style="startArrow=oval;startFill=0;startSize=7;endArrow=block;endFill=0;endSize=10;dashed=1;html=1;" edge="1" parent="WIyWlLk6GJQsqaUBKTNV-1" source="ru7FEsAcvSoQa1bK1Z1L-11" target="ru7FEsAcvSoQa1bK1Z1L-13">
          <mxGeometry width="100" relative="1" as="geometry">
            <mxPoint x="400" y="510" as="sourcePoint" />
            <mxPoint x="500" y="510" as="targetPoint" />
            <Array as="points">
              <mxPoint x="760" y="530" />
            </Array>
          </mxGeometry>
        </mxCell>
      </root>
    </mxGraphModel>
  </diagram>
</mxfile>
